<?xml version="1.0" encoding="UTF-8" ?>
<!DOCTYPE svg PUBLIC "-//W3C//DTD SVG 1.1//EN" "http://www.w3.org/Graphics/SVG/1.1/DTD/svg11.dtd">
<svg width="26pt" height="32pt" viewBox="0 0 26 32" version="1.1" xmlns="http://www.w3.org/2000/svg">
<path fill="#ffffff" d=" M 0.00 0.00 L 4.02 0.00 C 2.48 2.36 1.17 4.85 0.00 7.40 L 0.00 0.00 Z" />
<path fill="#212343" d=" M 4.02 0.00 L 22.09 0.00 C 23.46 2.43 24.82 4.87 26.00 7.40 L 26.00 30.29 C 24.77 30.10 24.16 30.67 24.16 32.00 L 1.79 32.00 C 1.90 30.68 1.31 30.12 -0.00 30.33 L 0.00 7.40 C 1.17 4.85 2.48 2.36 4.02 0.00 Z" />
<path fill="#ffffff" d=" M 22.09 0.00 L 26.00 0.00 L 26.00 7.40 C 24.82 4.87 23.46 2.43 22.09 0.00 Z" />
<path fill="#ffffff" d=" M 2.16 6.73 C 3.06 5.04 3.97 3.35 4.87 1.67 C 10.29 1.67 15.71 1.67 21.13 1.67 C 22.03 3.36 22.94 5.04 23.84 6.73 C 16.61 6.73 9.38 6.73 2.16 6.73 Z" />
<path fill="#ffffff" d=" M 0.73 8.53 C 8.59 8.15 16.48 8.54 24.35 8.40 C 24.35 9.43 24.35 11.50 24.35 12.53 C 16.50 12.52 8.64 12.49 0.79 12.70 C 2.08 12.52 4.65 12.17 5.93 12.00 C 4.99 11.51 4.05 11.03 3.09 10.57 C 3.99 10.06 4.89 9.55 5.78 9.02 C 4.52 8.90 2.00 8.65 0.73 8.53 Z" />
<path fill="#8b8c9d" d=" M 15.49 10.13 C 18.48 8.54 15.72 13.44 15.49 10.13 Z" />
<path fill="#8b8c9d" d=" M 18.23 10.11 C 21.25 8.58 18.38 13.43 18.23 10.11 Z" />
<path fill="#212343" d=" M 20.94 10.15 C 23.85 8.51 21.19 13.48 20.94 10.15 Z" />
<path fill="#ffffff" d=" M 1.47 14.26 C 9.10 14.12 16.72 14.24 24.35 14.20 C 24.35 15.62 24.35 17.04 24.35 18.46 C 16.67 18.43 8.99 18.54 1.30 18.39 C 1.31 17.01 1.38 15.64 1.47 14.26 Z" />
<path fill="#212343" d=" M 3.21 16.24 C 2.96 12.53 7.96 16.79 4.58 18.02 C 3.69 18.15 3.14 17.81 2.93 16.99 C 3.00 16.80 3.14 16.43 3.21 16.24 Z" />
<path fill="#8b8c9d" d=" M 15.52 16.00 C 18.59 14.57 15.55 19.32 15.52 16.00 Z" />
<path fill="#8b8c9d" d=" M 18.22 16.04 C 21.22 14.48 18.41 19.36 18.22 16.04 Z" />
<path fill="#212343" d=" M 20.96 15.97 C 23.95 14.47 21.05 19.30 20.96 15.97 Z" />
<path fill="#ffffff" d=" M 2.41 20.46 C 2.82 20.86 2.82 20.86 2.41 20.46 Z" />
<path fill="#ffffff" d=" M 4.41 20.03 C 11.05 20.25 17.70 20.08 24.35 20.13 C 24.35 21.55 24.35 22.97 24.35 24.40 C 18.08 24.31 11.81 24.56 5.55 24.32 C 5.45 24.02 5.25 23.42 5.15 23.12 L 5.34 22.53 C 5.47 21.58 5.16 20.75 4.41 20.03 Z" />
<path fill="#8b8c9d" d=" M 16.23 21.18 C 17.53 21.87 17.53 22.54 16.21 23.21 C 14.91 22.53 14.91 21.85 16.23 21.18 Z" />
<path fill="#8b8c9d" d=" M 21.26 21.45 C 24.56 21.89 19.48 24.32 21.26 21.45 Z" />
<path fill="#ffffff" d=" M 1.93 24.11 C 1.44 22.76 1.92 22.21 3.37 22.48 C 3.79 23.87 3.31 24.42 1.93 24.11 Z" />
<path fill="#8b8c9d" d=" M 18.19 21.84 C 21.15 20.24 18.40 25.19 18.19 21.84 Z" />
<path fill="#ffffff" d=" M 1.69 26.23 C 9.28 26.03 16.87 26.04 24.46 26.09 C 24.34 27.46 24.22 28.83 24.08 30.19 C 17.35 30.47 10.62 30.31 3.89 30.28 L 4.55 31.35 C 3.51 30.72 2.48 30.07 1.44 29.43 C 2.14 29.02 3.54 28.18 4.24 27.77 C 4.98 28.39 5.74 29.00 6.52 29.58 C 6.50 25.98 3.18 27.82 1.29 27.50 L 1.69 26.23 Z" />
<path fill="#212343" d=" M 21.27 27.53 C 24.61 27.67 19.72 30.48 21.27 27.53 Z" />
<path fill="#8b8c9d" d=" M 15.58 27.85 C 18.72 26.62 15.37 31.19 15.58 27.85 Z" />
<path fill="#8b8c9d" d=" M 18.20 27.95 C 21.17 26.35 18.42 31.28 18.20 27.95 Z" />
<path fill="#ffffff" d=" M -0.00 30.33 C 1.31 30.12 1.90 30.68 1.79 32.00 L 0.00 32.00 L 0.00 30.33 Z" />
<path fill="#ffffff" d=" M 24.16 32.00 C 24.16 30.67 24.77 30.10 26.00 30.29 L 26.00 32.00 L 24.16 32.00 Z" />
</svg>
