<?xml version="1.0" standalone="no"?>
<!DOCTYPE svg PUBLIC "-//W3C//DTD SVG 20010904//EN"
 "http://www.w3.org/TR/2001/REC-SVG-20010904/DTD/svg10.dtd">
<svg version="1.0" xmlns="http://www.w3.org/2000/svg"
 width="700.000000pt" height="700.000000pt" viewBox="0 0 700.000000 700.000000"
 preserveAspectRatio="xMidYMid meet">
<metadata>
Created by potrace 1.11, written by Peter Selinger 2001-2013
</metadata>
<g transform="translate(0.000000,700.000000) scale(0.100000,-0.100000)"
fill="#000000" stroke="none">
<path d="M3218 6845 c-2 -2 -59 -6 -128 -10 -69 -3 -136 -8 -150 -10 -14 -2
-59 -7 -100 -10 -70 -6 -180 -20 -225 -29 -11 -2 -40 -7 -65 -10 -363 -49
-822 -189 -1100 -333 -115 -60 -165 -92 -269 -169 -164 -122 -269 -243 -333
-383 -63 -137 -60 6 -59 -2396 0 -2408 -4 -2248 59 -2387 61 -132 159 -248
310 -367 50 -39 93 -71 96 -71 3 0 36 -20 73 -44 221 -142 597 -279 993 -362
152 -31 144 -30 203 -38 27 -4 58 -9 70 -12 11 -2 43 -6 71 -9 28 -3 62 -8 76
-10 14 -2 52 -6 85 -10 33 -3 76 -8 95 -10 120 -14 295 -20 580 -19 334 0 562
10 670 29 14 3 57 7 95 11 39 3 144 19 235 35 91 17 177 32 191 34 130 21 462
120 650 195 166 66 410 202 499 277 99 83 125 108 175 163 98 110 162 236 185
360 9 49 12 601 12 2236 0 1194 -3 2190 -7 2215 -39 249 -209 463 -520 655
-234 145 -625 292 -960 360 -122 24 -228 44 -265 49 -25 4 -85 12 -135 20 -86
13 -131 18 -275 30 -36 3 -94 8 -130 11 -72 6 -697 14 -702 9z m572 -340 c210
-9 357 -23 510 -47 36 -5 81 -12 100 -14 53 -7 146 -25 240 -46 25 -5 52 -11
61 -13 58 -12 169 -42 259 -70 487 -152 807 -361 897 -586 9 -25 17 -71 17
-109 0 -98 -42 -180 -149 -287 -68 -68 -237 -193 -261 -193 -4 0 -28 -13 -53
-28 -162 -98 -629 -249 -891 -288 -19 -3 -42 -7 -50 -9 -8 -3 -33 -7 -55 -10
-22 -3 -65 -10 -95 -15 -30 -5 -80 -12 -110 -15 -30 -3 -73 -8 -95 -10 -311
-35 -814 -40 -1125 -11 -25 3 -76 7 -115 11 -38 3 -110 12 -160 20 -49 8 -110
17 -135 20 -66 10 -328 64 -380 80 -25 7 -81 23 -125 35 -217 60 -473 173
-645 284 -169 110 -298 278 -304 397 -13 228 252 468 709 644 126 48 342 116
416 129 13 3 25 5 27 7 3 3 14 5 57 13 22 4 58 11 80 16 22 6 54 12 70 15 17
3 41 7 55 10 115 20 239 37 380 50 36 4 83 8 105 10 22 3 128 8 235 11 107 4
196 7 197 8 4 3 187 -2 333 -9z m-2634 -1513 c76 -71 331 -213 510 -285 219
-88 548 -182 749 -213 17 -3 53 -9 80 -15 28 -5 66 -11 85 -14 60 -7 134 -17
150 -20 50 -9 306 -31 475 -40 103 -6 487 -6 585 0 171 10 267 16 295 20 17 2
57 7 90 10 64 6 199 23 231 29 10 2 44 7 74 12 30 4 57 8 60 9 3 1 25 5 50 9
74 13 318 72 420 101 305 86 614 230 802 372 31 24 58 43 61 43 2 0 3 -195 2
-432 -2 -474 -1 -470 -63 -561 -102 -147 -276 -267 -594 -411 -91 -41 -472
-157 -563 -171 -11 -1 -42 -8 -70 -14 -27 -6 -63 -13 -80 -16 -55 -9 -149 -24
-190 -30 -22 -3 -51 -8 -65 -10 -14 -3 -56 -7 -95 -11 -38 -3 -78 -8 -88 -10
-10 -1 -59 -6 -110 -9 -51 -3 -123 -8 -162 -10 -87 -6 -497 -6 -585 0 -36 2
-112 6 -169 10 -57 3 -107 7 -110 10 -4 2 -43 6 -86 10 -44 3 -91 8 -105 10
-14 2 -41 7 -60 10 -19 3 -46 7 -60 10 -14 2 -45 7 -70 11 -24 3 -47 7 -50 9
-3 2 -26 6 -50 10 -25 3 -101 20 -170 36 -69 17 -129 32 -135 33 -65 16 -275
85 -290 96 -5 4 -23 10 -39 14 -15 4 -84 33 -152 66 -227 107 -383 225 -475
357 -63 90 -62 87 -64 561 -1 237 1 432 5 432 3 0 15 -8 26 -18z m69 -1470 c6
-4 44 -29 85 -53 198 -120 415 -213 677 -289 129 -38 405 -102 488 -114 22 -3
51 -8 65 -10 14 -2 46 -7 71 -10 25 -4 57 -9 70 -11 25 -5 69 -9 179 -20 36
-4 81 -8 100 -10 216 -26 836 -26 1090 0 25 3 92 9 150 16 97 10 118 12 190
24 14 2 45 7 70 10 25 3 52 8 60 10 8 2 31 7 50 10 457 75 938 257 1231 468
l76 54 -1 -436 -1 -436 -34 -70 c-41 -85 -159 -207 -271 -282 -138 -93 -326
-179 -550 -253 -197 -65 -489 -134 -660 -155 -25 -3 -52 -7 -60 -9 -8 -3 -42
-7 -75 -11 -77 -8 -142 -15 -180 -20 -229 -31 -911 -25 -1170 9 -22 3 -66 8
-98 11 -32 4 -68 8 -80 11 -12 2 -42 7 -67 10 -25 3 -90 15 -145 26 -55 11
-111 22 -125 24 -140 25 -463 124 -603 185 -332 143 -539 306 -612 479 -18 42
-19 78 -21 482 l-1 437 46 -34 c25 -19 51 -38 56 -43z m37 -1437 c53 -36 105
-68 115 -72 10 -4 38 -19 63 -33 221 -128 681 -271 1075 -335 191 -30 220 -34
290 -41 39 -3 84 -8 100 -10 17 -2 71 -6 120 -10 50 -3 115 -7 145 -9 73 -5
578 -5 660 0 144 8 269 19 360 30 19 2 64 7 100 11 36 3 67 7 70 9 3 2 30 6
60 10 76 9 328 59 430 85 417 106 735 247 1010 448 16 12 17 -9 15 -425 -1
-397 -3 -442 -19 -478 -104 -230 -424 -434 -921 -589 -81 -25 -261 -70 -325
-81 -19 -3 -54 -10 -78 -16 -23 -5 -59 -12 -80 -15 -20 -3 -77 -12 -127 -19
-49 -8 -117 -17 -150 -20 -33 -4 -76 -8 -95 -11 -19 -2 -73 -6 -120 -10 -47
-3 -105 -7 -130 -10 -65 -6 -606 -5 -665 1 -27 3 -88 7 -135 10 -47 2 -94 6
-105 9 -11 2 -51 7 -90 10 -38 4 -110 13 -160 21 -49 7 -107 16 -127 19 -21 3
-57 10 -80 15 -24 6 -59 13 -78 16 -212 36 -567 153 -762 250 -270 135 -427
278 -494 450 -4 11 -9 215 -10 453 l-1 433 21 -16 c11 -8 65 -44 118 -80z"/>
</g>
</svg>
